# xmcd
#
# Track frame offsets: 
#        150
#        21714
#        40457
#        65722
#        89683
#        107478
#        134106
#        149653
#        168506
#
# Disc length: 2503 seconds
#
# Revision: 0
# Processed by: cddbd v1.5.1PL0 Copyright (c) Steve Scherf et al.
# Submitted via: ExactAudioCopy v0.95b2
#
DISCID=9409c509
DTITLE=Chris 'Hammer' Smith Band - Down But Not Out
DYEAR=1994
DGENRE=Blues
TTITLE0=Set You Free
TTITLE1=Paths I Haven't Tried
TTITLE2=I Want To Get Nasty
TTITLE3=Little Boy Blue
TTITLE4=Another Sane Day In New Orleans
TTITLE5=World Of Pain
TTITLE6=Hammerology
TTITLE7=Down But Not Out
TTITLE8=Cheatin' Woman Blues
EXTD=
EXTT0=
EXTT1=
EXTT2=
EXTT3=
EXTT4=
EXTT5=
EXTT6=
EXTT7=
EXTT8=
PLAYORDER=
